<svg width="24" height="24" viewBox="0 0 24 24" fill="none" xmlns="http://www.w3.org/2000/svg">
<path d="M6.52188 14.1537V15.3987L2.39816 12.8686V11.7609L6.52188 9.2356V10.4739L3.58329 12.3133L6.52188 14.1537Z" fill="#F15929"/>
<path d="M9.53935 17.2802L12.2641 8.44385H13.07L10.3405 17.2802H9.53935Z" fill="#F15929"/>
<path d="M16.0903 10.4751V9.23486L20.2141 11.7621V12.8669L16.0903 15.3989V14.1539L19.0337 12.3145L16.0903 10.4751Z" fill="#F15929"/>
<path d="M3.52436 16.956C3.52436 17.3052 3.2421 17.5885 2.89426 17.5885C2.54642 17.5885 2.26415 17.3052 2.26415 16.956C2.26415 16.6068 2.54642 16.3235 2.89426 16.3235C3.24305 16.3244 3.52436 16.6068 3.52436 16.956Z" fill="#F9B39D"/>
<path d="M20.9097 8.05754C21.2577 8.05754 21.5399 7.77435 21.5399 7.42501C21.5399 7.07567 21.2577 6.79248 20.9097 6.79248C20.5618 6.79248 20.2796 7.07567 20.2796 7.42501C20.2796 7.77435 20.5618 8.05754 20.9097 8.05754Z" fill="#F9B39D"/>
</svg>
