<svg width="24" height="25" viewBox="0 0 24 25" fill="none" xmlns="http://www.w3.org/2000/svg">
<path d="M16.6855 13.3363C18.1434 12.0283 19.0576 10.1405 19.0576 8.0433C19.0576 4.08778 15.8081 0.881104 11.8008 0.881104C7.79254 0.881104 4.54308 4.0868 4.54308 8.0433C4.54308 10.1414 5.45727 12.0283 6.9142 13.3363H11.2979V7.72686H9.03336V6.89841H14.402V7.72686H12.1374V13.3353H16.6855V13.3363Z" fill="#F15929"/>
<path d="M14.9587 17.5552C14.7565 19.0824 13.432 20.2616 11.8297 20.2616C10.2274 20.2616 8.9029 19.0824 8.70074 17.5552H14.9587Z" fill="#F15929"/>
<path d="M15.8729 13.9495H7.72681V17.0421H15.8729V13.9495Z" fill="#FBCCBD"/>
<g opacity="0.51">
<path d="M12.1374 24.0286C14.2005 24.0286 15.8729 23.7417 15.8729 23.3878C15.8729 23.0339 14.2005 22.7471 12.1374 22.7471C10.0744 22.7471 8.40199 23.0339 8.40199 23.3878C8.40199 23.7417 10.0744 24.0286 12.1374 24.0286Z" fill="#CCCCCC"/>
</g>
<path d="M4.01427 3.15329C4.30632 3.15329 4.54307 2.91965 4.54307 2.63145C4.54307 2.34325 4.30632 2.10962 4.01427 2.10962C3.72222 2.10962 3.48547 2.34325 3.48547 2.63145C3.48547 2.91965 3.72222 3.15329 4.01427 3.15329Z" fill="#F15929"/>
</svg>
