<svg width="25" height="24" viewBox="0 0 25 24" fill="none" xmlns="http://www.w3.org/2000/svg">
<g clip-path="url(#clip0_26_16699)">
<path d="M20.625 22H18.625V20C18.625 19.2044 18.3089 18.4413 17.7463 17.8787C17.1837 17.3161 16.4206 17 15.625 17H9.625C8.82935 17 8.06629 17.3161 7.50368 17.8787C6.94107 18.4413 6.625 19.2044 6.625 20V22H4.625V20C4.625 18.6739 5.15178 17.4021 6.08947 16.4645C7.02715 15.5268 8.29892 15 9.625 15H15.625C16.9511 15 18.2229 15.5268 19.1605 16.4645C20.0982 17.4021 20.625 18.6739 20.625 20V22ZM12.625 13C11.8371 13 11.0569 12.8448 10.3289 12.5433C9.60095 12.2417 8.93951 11.7998 8.38236 11.2426C7.82521 10.6855 7.38325 10.0241 7.08172 9.2961C6.78019 8.56815 6.625 7.78793 6.625 7C6.625 6.21207 6.78019 5.43185 7.08172 4.7039C7.38325 3.97595 7.82521 3.31451 8.38236 2.75736C8.93951 2.20021 9.60095 1.75825 10.3289 1.45672C11.0569 1.15519 11.8371 1 12.625 1C14.2163 1 15.7424 1.63214 16.8676 2.75736C17.9929 3.88258 18.625 5.4087 18.625 7C18.625 8.5913 17.9929 10.1174 16.8676 11.2426C15.7424 12.3679 14.2163 13 12.625 13ZM12.625 11C13.6859 11 14.7033 10.5786 15.4534 9.82843C16.2036 9.07828 16.625 8.06087 16.625 7C16.625 5.93913 16.2036 4.92172 15.4534 4.17157C14.7033 3.42143 13.6859 3 12.625 3C11.5641 3 10.5467 3.42143 9.79657 4.17157C9.04643 4.92172 8.625 5.93913 8.625 7C8.625 8.06087 9.04643 9.07828 9.79657 9.82843C10.5467 10.5786 11.5641 11 12.625 11Z" fill="#909090"/>
</g>
<defs>
<clipPath id="clip0_26_16699">
<rect width="24" height="24" fill="white" transform="translate(0.625)"/>
</clipPath>
</defs>
</svg>
