<svg width="25" height="24" viewBox="0 0 25 24" fill="none" xmlns="http://www.w3.org/2000/svg">
<g clip-path="url(#clip0_25_16359)">
<path d="M3.125 18.5V5C3.125 4.20435 3.44107 3.44129 4.00368 2.87868C4.56629 2.31607 5.32935 2 6.125 2H20.125C20.3902 2 20.6446 2.10536 20.8321 2.29289C21.0196 2.48043 21.125 2.73478 21.125 3V21C21.125 21.2652 21.0196 21.5196 20.8321 21.7071C20.6446 21.8946 20.3902 22 20.125 22H6.625C5.69674 22 4.8065 21.6313 4.15013 20.9749C3.49375 20.3185 3.125 19.4283 3.125 18.5ZM19.125 20V17H6.625C6.22718 17 5.84564 17.158 5.56434 17.4393C5.28304 17.7206 5.125 18.1022 5.125 18.5C5.125 18.8978 5.28304 19.2794 5.56434 19.5607C5.84564 19.842 6.22718 20 6.625 20H19.125ZM10.125 4H6.125C5.85978 4 5.60543 4.10536 5.41789 4.29289C5.23036 4.48043 5.125 4.73478 5.125 5V15.337C5.59369 15.1144 6.10615 14.9993 6.625 15H19.125V4H17.125V12L13.625 10L10.125 12V4Z" fill="#909090"/>
</g>
<defs>
<clipPath id="clip0_25_16359">
<rect width="24" height="24" fill="white" transform="translate(0.125)"/>
</clipPath>
</defs>
</svg>
