<svg width="25" height="24" viewBox="0 0 25 24" fill="none" xmlns="http://www.w3.org/2000/svg">
<g clip-path="url(#clip0_26_16619)">
<path d="M17.375 3C20.413 3 22.875 5.5 22.875 9C22.875 16 15.375 20 12.875 21.5C10.375 20 2.875 16 2.875 9C2.875 5.5 5.375 3 8.375 3C10.235 3 11.875 4 12.875 5C13.875 4 15.515 3 17.375 3ZM13.809 18.604C14.69 18.048 15.485 17.495 16.229 16.903C19.21 14.533 20.875 11.943 20.875 9C20.875 6.64 19.338 5 17.375 5C16.299 5 15.135 5.57 14.289 6.414L12.875 7.828L11.461 6.414C10.615 5.57 9.451 5 8.375 5C6.435 5 4.875 6.656 4.875 9C4.875 11.944 6.541 14.533 9.52 16.903C10.265 17.495 11.06 18.048 11.941 18.603C12.24 18.792 12.536 18.973 12.875 19.175C13.214 18.973 13.51 18.792 13.809 18.604Z" fill="#909090"/>
</g>
<defs>
<clipPath id="clip0_26_16619">
<rect width="24" height="24" fill="white" transform="translate(0.875)"/>
</clipPath>
</defs>
</svg>
