<svg width="25" height="24" viewBox="0 0 25 24" fill="none" xmlns="http://www.w3.org/2000/svg">
<path d="M9.375 21H7.375C5.71815 21 4.375 19.7389 4.375 18.1833V10.9C4.375 10.153 4.69107 9.43656 5.25368 8.90834L10.9608 3.54999C11.7418 2.81667 13.0082 2.81667 13.7892 3.54999L19.4963 8.90834C20.0589 9.43656 20.375 10.153 20.375 10.9V18.1833C20.375 19.7389 19.0319 21 17.375 21H15.375M9.375 21V16C9.375 14.8954 10.2704 14 11.375 14H13.375C14.4796 14 15.375 14.8954 15.375 16V21M9.375 21H15.375" stroke="#909090" stroke-width="2"/>
</svg>
