<svg width="24" height="24" viewBox="0 0 24 24" fill="none" xmlns="http://www.w3.org/2000/svg">
<path d="M3.89141 16.7339V21.12L0 17.0126L3.89141 16.7339Z" fill="#F69070"/>
<path d="M24 19.8491V19.85L4.51875 21.7805V16.689L19.6569 15.6055L24 19.8491Z" fill="#F69070"/>
<path d="M23.8109 4.85303L4.44434 6.14539V21.8544L23.9256 19.9239V19.923L23.8109 4.85303ZM14.8997 10.1443C15.294 10.1443 15.614 10.4652 15.614 10.8595C15.614 11.2539 15.294 11.5738 14.8997 11.5738C14.5054 11.5738 14.1845 11.2539 14.1845 10.8595C14.1845 10.4652 14.5054 10.1443 14.8997 10.1443Z" fill="#F15929"/>
<path d="M1.73331 10.7857C2.01743 10.7857 2.24774 10.5554 2.24774 10.2713C2.24774 9.98715 2.01743 9.75684 1.73331 9.75684C1.4492 9.75684 1.21888 9.98715 1.21888 10.2713C1.21888 10.5554 1.4492 10.7857 1.73331 10.7857Z" fill="#F15929"/>
<path d="M8.57954 3.12737C8.79337 3.12737 8.96671 2.95402 8.96671 2.74019C8.96671 2.52636 8.79337 2.35303 8.57954 2.35303C8.36571 2.35303 8.19238 2.52636 8.19238 2.74019C8.19238 2.95402 8.36571 3.12737 8.57954 3.12737Z" fill="#F69070"/>
</svg>
