<svg width="24" height="24" viewBox="0 0 24 24" fill="none" xmlns="http://www.w3.org/2000/svg">
<path d="M21.4396 11.8497C21.1217 10.6684 20.7287 9.5226 20.1843 8.4586L20.0849 8.2586C20.05 8.19193 20.0106 8.12971 19.9739 8.06482L19.7537 7.67726L19.5101 7.30393C19.4698 7.24171 19.4313 7.1786 19.3884 7.11815L19.2558 6.94037C18.912 6.45771 18.5181 6.01415 18.091 5.60615C17.9854 5.50393 17.8797 5.39904 17.7642 5.3066L17.5959 5.1626C17.5395 5.1146 17.484 5.0666 17.424 5.02215L17.0712 4.75282L16.7051 4.50038C16.209 4.17504 15.6835 3.89149 15.1364 3.64882C14.5885 3.40704 14.0209 3.20171 13.4371 3.04527C13.1461 2.95993 12.8498 2.89593 12.5507 2.8346C12.4621 2.81593 12.3734 2.79993 12.2848 2.78393C12.2463 2.77682 12.2078 2.77149 12.1693 2.76526C12.146 2.76171 12.1228 2.75815 12.0995 2.75371C12.0843 2.75104 12.069 2.74837 12.0538 2.7466V2.66571C12.0923 2.66393 12.1317 2.66393 12.1693 2.66393C12.2078 2.66215 12.2463 2.66215 12.2848 2.66393C12.3806 2.66482 12.4755 2.6666 12.5704 2.67104C12.6832 2.67549 12.796 2.6826 12.9089 2.69238C13.1049 2.70838 13.301 2.73237 13.4971 2.75993C13.8051 2.80437 14.1104 2.87015 14.4148 2.94126C14.7174 3.0186 15.0174 3.10749 15.3119 3.21415C15.9019 3.42482 16.4732 3.69682 17.0122 4.02393C17.5511 4.35015 18.0507 4.74127 18.5073 5.17593L18.6784 5.34037C18.7366 5.39371 18.7867 5.45504 18.8404 5.51193C18.9461 5.62838 19.0562 5.74127 19.1574 5.86215L19.451 6.23193C19.5012 6.29237 19.5459 6.35726 19.5898 6.42126L19.7241 6.61504L19.8575 6.80882C19.8996 6.8746 19.9381 6.94304 19.9784 7.0106C20.0581 7.14482 20.1378 7.27993 20.2147 7.41593L20.4243 7.8346C20.4574 7.90482 20.4941 7.97415 20.5254 8.04526L20.615 8.26126C21.0922 9.4106 21.3697 10.6284 21.4396 11.8497Z" fill="#F15929"/>
<path d="M11.1048 2.66919V2.82119C11.0824 2.82563 11.06 2.83008 11.0376 2.83452C11.0215 2.83719 11.0054 2.84163 10.9893 2.8443C10.9508 2.8523 10.9123 2.8603 10.8738 2.86919C10.6311 2.91986 10.3885 2.97586 10.1512 3.04519C9.5666 3.20163 8.99895 3.40697 8.45191 3.64874C7.90486 3.89052 7.37841 4.17408 6.88329 4.5003L6.5171 4.75275L6.16434 5.02208C6.10525 5.06652 6.04884 5.11452 5.99244 5.16252L5.82412 5.30652C5.70862 5.39897 5.60386 5.50386 5.49732 5.60608C5.07025 6.01408 4.67631 6.45763 4.3325 6.9403L4.19999 7.11808C4.15701 7.17852 4.11851 7.24164 4.07822 7.30386L3.83469 7.67719L3.61444 8.06475C3.57773 8.12964 3.53745 8.19275 3.50342 8.25852L3.40404 8.45852C2.85968 9.52252 2.46663 10.6683 2.14879 11.8496C2.21862 10.6283 2.49528 9.41052 2.97428 8.26119L3.06381 8.04519C3.09425 7.97408 3.13186 7.90475 3.16499 7.83452L3.37449 7.41586C3.45149 7.27986 3.53117 7.14474 3.61086 7.01052C3.65115 6.94297 3.68965 6.87452 3.73173 6.80875L3.86513 6.61497L3.99943 6.42119C4.0442 6.35719 4.08807 6.2923 4.13821 6.23185L4.43188 5.86208C4.53305 5.74119 4.64317 5.6283 4.74882 5.51186C4.80254 5.45408 4.85358 5.39274 4.91088 5.3403L5.08189 5.17586C5.53851 4.74119 6.0381 4.35008 6.57709 4.02386C7.11607 3.69674 7.6873 3.42475 8.27732 3.21408C8.57188 3.1083 8.87182 3.01852 9.17444 2.94119C9.47885 2.87008 9.78326 2.8043 10.0922 2.75986C10.2873 2.73141 10.4843 2.7083 10.6804 2.6923C10.7448 2.68697 10.8093 2.68252 10.8756 2.67897C10.9141 2.6763 10.9526 2.67452 10.9911 2.67275C11.0009 2.67186 11.0099 2.67186 11.0197 2.67097C11.0475 2.67008 11.0761 2.66919 11.1048 2.66919Z" fill="#F15929"/>
<path d="M15.8867 14.3768L14.02 19.3013H8.8548L7.04982 14.2355L10.3133 5.33862H11.2955V12.7697C10.8594 12.8942 10.5407 13.2915 10.5407 13.7644C10.5407 14.3368 11.0072 14.8 11.5838 14.8C12.1586 14.8 12.6259 14.3368 12.6259 13.7644C12.6259 13.2915 12.3081 12.8951 11.8721 12.7697V5.33862H12.8909L15.8867 14.3768Z" fill="#F15929"/>
<path d="M13.8991 20.2241H9.04552V22.0197H13.8991V20.2241Z" fill="#F9B39D"/>
<path d="M3.10411 2.69155C3.10411 2.95288 2.89012 3.16533 2.6269 3.16533C2.36367 3.16533 2.14969 2.95288 2.14969 2.69155C2.14969 2.43022 2.36367 2.21777 2.6269 2.21777C2.89012 2.21777 3.10411 2.43022 3.10411 2.69155Z" fill="#F9B39D"/>
<path d="M21.7108 2.69155C21.7108 2.95288 21.4969 3.16533 21.2336 3.16533C20.9704 3.16533 20.7564 2.95288 20.7564 2.69155C20.7564 2.43022 20.9704 2.21777 21.2336 2.21777C21.4969 2.21777 21.7108 2.43022 21.7108 2.69155Z" fill="#F9B39D"/>
<path d="M20.9149 2.51392H12.0538V2.86947H20.9149V2.51392Z" fill="#F9B39D"/>
<path d="M11.1057 2.51392H2.24548V2.86947H11.1057V2.51392Z" fill="#F9B39D"/>
<path d="M10.9902 2.10767V3.27655H12.1693V2.10767H10.9902ZM12.0538 3.16189H11.1057V2.22144H12.0538V3.16189Z" fill="#FEEEEA"/>
<path d="M10.8747 1.99292V3.39114H12.2839V1.99292H10.8747ZM12.0538 3.16181H11.1057V2.22136H12.0538V3.16181Z" fill="#F9B39D"/>
<path d="M15.465 0.217779C15.465 0.337779 15.3665 0.435555 15.2457 0.435555C15.1248 0.435555 15.0263 0.337779 15.0263 0.217779C15.0263 0.0977789 15.1248 0 15.2457 0C15.3665 0 15.465 0.0977789 15.465 0.217779Z" fill="#F15929"/>
</svg>
