<svg width="24" height="24" viewBox="0 0 24 24" fill="none" xmlns="http://www.w3.org/2000/svg">
<path d="M8.20204 12.5399C7.48728 12.8022 7.12849 13.3239 7.18892 13.9933L5.8406 14.4837L5.06069 13.2595C4.9285 13.0521 4.78782 12.9802 4.62353 12.9802C4.54421 12.9802 4.45924 12.9963 4.36859 13.0237C3.94087 13.1468 3.465 13.019 3.2856 12.7331C3.22611 12.6374 3.21101 12.5408 3.24028 12.4452C3.28371 12.3041 3.41873 12.1744 3.61135 12.0883C3.71426 12.0428 3.88705 11.9661 3.94371 11.7787C3.99941 11.595 3.90027 11.4397 3.85306 11.3649C3.62928 11.0136 3.40551 10.6623 3.1789 10.3063L3.15247 10.2637L4.06078 9.9333C4.27701 9.85566 4.49228 9.77706 4.70756 9.69753C4.79443 9.66533 4.97477 9.59906 5.04558 9.41822C5.11357 9.24305 5.03331 9.08398 5.00215 9.02339C4.9455 8.91261 4.937 8.80467 4.97666 8.70336C5.03142 8.56323 5.17966 8.44015 5.38078 8.36724C5.78773 8.21859 6.26832 8.33221 6.49682 8.62951C6.65922 8.84066 6.88583 8.90693 7.13604 8.81604C7.48728 8.68822 7.83758 8.56134 8.18788 8.43351L8.85921 8.19019L9.63722 9.4097C9.83551 9.72026 10.0451 9.73257 10.3407 9.64735C10.7552 9.529 11.2367 9.65871 11.4133 9.93802C11.4737 10.0337 11.4897 10.1321 11.4595 10.2297C11.4161 10.3707 11.2839 10.4985 11.0951 10.5819C10.9827 10.6311 10.8137 10.7059 10.7561 10.8924C10.7004 11.0761 10.7986 11.2304 10.8458 11.3034C11.063 11.6461 11.2811 11.987 11.502 12.3344L11.5502 12.4102L10.267 12.876C9.63722 12.3534 8.79405 12.3221 8.20204 12.5399Z" fill="#F15929"/>
<path d="M14.7973 17.3204L14.852 17.4065L13.5689 17.8724C12.9391 17.3488 12.0978 17.3175 11.5039 17.5353C10.7892 17.7976 10.4313 18.3183 10.4908 18.9887L9.14248 19.4782L8.36257 18.2549C8.23038 18.0475 8.0897 17.9756 7.92541 17.9756C7.84609 17.9756 7.76112 17.9917 7.66953 18.0182C7.24275 18.1422 6.76688 18.0144 6.58748 17.7284C6.52799 17.6328 6.51194 17.5362 6.54215 17.4406C6.58464 17.2995 6.72061 17.1698 6.91322 17.0837C7.01614 17.0382 7.18893 16.9615 7.24558 16.7741C7.30129 16.5904 7.20215 16.4351 7.15494 16.3603L6.4534 15.2582L7.35417 14.9315C7.57322 14.852 7.79133 14.7724 8.00944 14.6929C8.09536 14.6607 8.27665 14.5945 8.34746 14.4136C8.41545 14.2384 8.33424 14.0794 8.30403 14.0188C8.24643 13.9071 8.23888 13.8001 8.27854 13.6987C8.3333 13.5596 8.48154 13.4365 8.68266 13.3626C9.08961 13.2149 9.5702 13.3276 9.7987 13.6259C9.9611 13.837 10.1877 13.9023 10.4379 13.8114C10.7835 13.6864 11.1291 13.5605 11.4747 13.4355L12.1611 13.1865L12.9391 14.406C13.1374 14.7166 13.347 14.728 13.6425 14.6437C14.057 14.5244 14.5386 14.655 14.7151 14.9344C14.7756 15.03 14.7916 15.1285 14.7614 15.226C14.718 15.3671 14.5858 15.4949 14.3969 15.5782C14.2846 15.6274 14.1156 15.7013 14.058 15.8888C14.0023 16.0724 14.1005 16.2258 14.1477 16.2997C14.3639 16.6387 14.5782 16.9757 14.7973 17.3204Z" fill="#F69070"/>
<path d="M19.5664 15.8955C19.4994 16.0726 19.5825 16.2298 19.6268 16.3131C19.6797 16.4125 19.6873 16.5119 19.6495 16.6094C19.5957 16.7524 19.4522 16.8783 19.2558 16.9522C18.862 17.0999 18.3644 16.9976 18.1444 16.7231C17.9169 16.4381 17.7129 16.4428 17.4372 16.5469C16.9878 16.7174 16.5384 16.8868 16.0804 17.0601L15.7802 17.1747L15.1787 16.2714C15.5064 16.0082 15.6348 15.7242 15.6839 15.5149C15.7575 15.1987 15.6924 14.8588 15.5063 14.5823C15.2382 14.1837 14.6887 13.75 13.5783 13.8646L12.9938 12.9869L14.5112 12.4121C14.6179 12.3724 14.7973 12.3042 14.8662 12.1205C14.9332 11.9425 14.8492 11.7853 14.8086 11.7096C14.7538 11.6064 14.7453 11.5032 14.7831 11.4038C14.8369 11.2618 14.9814 11.1368 15.1806 11.0629C15.5781 10.9152 16.0663 11.0184 16.2919 11.2977C16.5176 11.577 16.731 11.5704 17.002 11.4682L18.6524 10.8433L19.1444 11.5827C19.2539 11.7484 19.3634 11.9122 19.4729 12.076C19.6778 12.3809 19.9243 12.3553 20.1386 12.29C20.5776 12.1565 21.0535 12.273 21.2461 12.5617C21.3094 12.6564 21.3283 12.7521 21.3018 12.8458C21.2622 12.9878 21.1215 13.1232 20.9176 13.217C20.8571 13.2444 20.6721 13.3287 20.6154 13.5275C20.5909 13.6127 20.5833 13.7443 20.6824 13.8939C20.8524 14.1486 21.0224 14.4043 21.1923 14.659L21.4397 15.0301L19.928 15.6039C19.81 15.6475 19.6344 15.7147 19.5664 15.8955Z" fill="#F15929"/>
<path d="M17.4911 8.55659C17.4637 8.63896 17.4486 8.76962 17.5383 8.92206C17.6742 9.15025 17.8093 9.37843 17.9443 9.60756C18.0189 9.73349 18.0935 9.86037 18.1681 9.98629L18.0548 10.0355L16.5818 10.5932C16.5761 10.5951 16.5724 10.596 16.5676 10.5979C16.1645 10.1188 15.4101 9.94558 14.7633 10.187C14.3894 10.3262 14.1174 10.5771 13.9975 10.8943C13.921 11.096 13.9135 11.31 13.973 11.5154C13.465 11.6859 12.9551 11.8572 12.4349 12.0324L11.8929 11.1168C12.2432 10.8621 12.3886 10.5771 12.449 10.366C12.5359 10.0564 12.4906 9.71929 12.3225 9.43903C12.078 9.03 11.553 8.57552 10.4379 8.64938L9.90915 7.75651C10.2321 7.64763 10.554 7.5397 10.876 7.43176L11.469 7.23293C11.5785 7.196 11.7598 7.1354 11.8363 6.95645C11.9099 6.78318 11.8372 6.62317 11.8013 6.54742C11.7541 6.44422 11.7522 6.3429 11.7947 6.24538C11.858 6.10052 12.0119 5.97744 12.2205 5.90926C12.6256 5.77482 13.1053 5.89317 13.313 6.17816C13.5245 6.46978 13.7388 6.46978 14.0155 6.37699L15.6999 5.81079L16.1352 6.54648C16.2372 6.7188 16.3382 6.89207 16.4421 7.06344C16.6309 7.38063 16.8802 7.36454 17.0992 7.30583C17.5439 7.18748 18.0104 7.31814 18.1841 7.60976C18.2398 7.70444 18.2521 7.79912 18.2219 7.89002C18.1728 8.03583 18.0227 8.16933 17.8074 8.25644C17.7451 8.28295 17.5572 8.3606 17.4911 8.55659Z" fill="#F69070"/>
<path d="M8.84315 5.05151C9.08929 5.05151 9.28882 4.85143 9.28882 4.60461C9.28882 4.3578 9.08929 4.15771 8.84315 4.15771C8.59702 4.15771 8.39749 4.3578 8.39749 4.60461C8.39749 4.85143 8.59702 5.05151 8.84315 5.05151Z" fill="#F69070"/>
<path d="M15.021 5.49927C15.2672 5.49927 15.4667 5.29919 15.4667 5.05237C15.4667 4.80555 15.2672 4.60547 15.021 4.60547C14.7749 4.60547 14.5754 4.80555 14.5754 5.05237C14.5754 5.29919 14.7749 5.49927 15.021 5.49927Z" fill="#F15929"/>
</svg>
