<svg width="16" height="16" viewBox="0 0 16 16" fill="none" xmlns="http://www.w3.org/2000/svg">
<path d="M13.3333 11.3333H14.6667V12.6666H1.33334V11.3333H2.66668V6.66659C2.66668 5.2521 3.22858 3.89554 4.22877 2.89535C5.22897 1.89516 6.58552 1.33325 8.00001 1.33325C9.4145 1.33325 10.7711 1.89516 11.7712 2.89535C12.7714 3.89554 13.3333 5.2521 13.3333 6.66659V11.3333ZM12 11.3333V6.66659C12 5.60572 11.5786 4.5883 10.8284 3.83816C10.0783 3.08801 9.06088 2.66659 8.00001 2.66659C6.93914 2.66659 5.92173 3.08801 5.17158 3.83816C4.42144 4.5883 4.00001 5.60572 4.00001 6.66659V11.3333H12ZM6.00001 13.9999H10V15.3333H6.00001V13.9999Z" fill="#0D0D0D"/>
</svg>
